<?xml version="1.0" standalone="no"?>
<!DOCTYPE svg PUBLIC "-//W3C//DTD SVG 20010904//EN"
 "http://www.w3.org/TR/2001/REC-SVG-20010904/DTD/svg10.dtd">
<svg version="1.0" xmlns="http://www.w3.org/2000/svg"
 width="1456.000000pt" height="1456.000000pt" viewBox="0 0 1456.000000 1456.000000"
 preserveAspectRatio="xMidYMid meet">
<metadata>
Created by potrace 1.14, written by Peter Selinger 2001-2017
</metadata>
<g transform="translate(0.000000,1456.000000) scale(0.100000,-0.100000)"
fill="#000000" stroke="none">
<path d="M8940 14544 c0 -5 -21 -32 -46 -60 -89 -95 -160 -172 -249 -268 -49
-54 -117 -127 -150 -162 -33 -35 -87 -93 -120 -129 -33 -36 -80 -87 -105 -114
-25 -26 -83 -89 -130 -140 -47 -51 -105 -115 -130 -141 -25 -26 -88 -94 -140
-150 -52 -57 -115 -125 -140 -151 -25 -26 -79 -85 -120 -130 -41 -45 -95 -104
-120 -130 -25 -26 -81 -87 -125 -135 -44 -48 -100 -108 -125 -134 -44 -46
-219 -234 -276 -296 -16 -17 -72 -78 -126 -135 -53 -57 -108 -117 -123 -134
-15 -16 -76 -82 -135 -145 -59 -63 -120 -129 -136 -146 -16 -17 -72 -78 -124
-134 -52 -57 -106 -114 -119 -129 -13 -14 -67 -73 -120 -130 -53 -57 -107
-116 -121 -131 -58 -62 -218 -236 -260 -280 -25 -26 -81 -87 -125 -135 -44
-48 -98 -106 -120 -129 -22 -24 -87 -94 -145 -157 -58 -62 -120 -128 -137
-146 -18 -19 -33 -35 -33 -37 0 -2 -32 -36 -71 -77 -39 -41 -95 -101 -124
-134 -30 -33 -80 -88 -112 -121 -32 -34 -92 -98 -133 -143 -41 -45 -103 -111
-137 -147 -35 -36 -63 -67 -63 -69 0 -3 -22 -27 -50 -54 -27 -27 -50 -55 -50
-62 0 -7 -3 -10 -6 -6 -3 3 -26 -18 -51 -46 -25 -29 -55 -61 -67 -73 -11 -11
-55 -59 -97 -105 -42 -46 -96 -105 -120 -130 -24 -26 -66 -71 -93 -100 -27
-30 -97 -106 -156 -169 -60 -63 -121 -129 -136 -146 -79 -86 -223 -242 -254
-274 -39 -42 -213 -229 -256 -276 -140 -153 -212 -229 -226 -242 -17 -16 0
-36 153 -173 29 -26 223 -207 300 -279 39 -37 155 -145 265 -245 45 -42 228
-212 274 -255 26 -25 87 -81 135 -125 48 -44 117 -108 154 -143 36 -35 92 -87
124 -115 32 -29 82 -74 111 -102 29 -27 99 -93 156 -145 57 -52 120 -112 141
-132 21 -21 40 -38 42 -38 1 0 32 -28 68 -62 36 -35 112 -106 169 -158 57 -52
121 -111 141 -130 86 -80 236 -220 265 -246 17 -16 73 -67 124 -114 145 -133
149 -136 260 -240 58 -54 119 -111 135 -126 50 -45 234 -215 297 -274 32 -30
95 -89 139 -130 45 -41 100 -92 122 -113 23 -21 81 -75 130 -120 49 -45 104
-97 122 -115 32 -31 63 -41 79 -25 4 5 11 8 14 8 10 1 143 45 167 55 11 5 74
27 140 49 66 22 253 86 415 141 162 56 349 120 415 142 66 23 131 45 145 51
14 6 30 11 35 12 23 6 422 138 440 147 12 5 27 10 35 12 8 2 22 6 30 9 30 12
226 79 255 87 30 9 380 129 380 131 0 0 7 2 15 4 8 2 148 49 310 105 162 56
302 103 310 105 8 1 22 5 30 9 59 25 270 93 274 88 3 -3 6 1 6 8 0 7 2 11 6 8
5 -5 116 30 139 44 6 3 26 9 45 13 19 4 40 10 45 13 24 15 164 60 169 54 3 -3
6 -1 6 5 0 5 6 10 13 10 6 0 53 15 102 32 50 18 119 41 155 52 36 11 74 24 85
29 11 6 67 25 125 44 58 19 135 46 173 60 37 14 67 23 67 19 0 -3 7 0 15 7 8
7 15 10 15 7 0 -3 28 5 61 19 34 13 65 21 69 19 5 -3 10 -2 12 3 1 4 55 25
118 46 131 44 150 54 126 71 -8 6 -17 23 -20 38 -2 15 -7 31 -11 37 -3 5 -8
18 -10 27 -5 23 -35 114 -46 134 -4 9 -13 36 -20 60 -16 55 -15 51 -22 69 -3
8 -16 44 -27 80 -12 36 -24 72 -27 80 -4 8 -7 18 -8 23 -2 4 -4 9 -5 12 -1 3
-4 10 -5 15 -1 6 -4 12 -5 15 -1 3 -3 8 -4 13 -4 18 -69 208 -75 217 -3 6 -6
15 -7 20 -2 11 -42 132 -51 155 -3 8 -7 20 -8 25 -4 15 -104 305 -120 348 -8
20 -12 37 -9 37 4 0 1 7 -6 15 -7 8 -9 15 -5 15 4 0 3 6 -3 13 -5 6 -14 28
-20 47 -6 19 -45 136 -87 260 -43 124 -78 230 -79 235 -1 6 -4 15 -8 20 -3 6
-22 60 -41 120 -20 61 -45 134 -56 163 -11 29 -20 56 -22 60 -4 17 -11 37 -74
222 -37 107 -68 202 -70 210 -2 8 -4 16 -5 18 -2 1 -3 6 -4 11 0 5 -4 13 -8
17 -5 4 -8 17 -8 29 0 11 -4 25 -8 30 -5 6 -15 30 -22 55 -8 25 -18 51 -23 58
-5 6 -7 12 -3 12 5 0 -12 52 -34 105 -5 11 -20 56 -34 100 -14 44 -40 124 -59
178 -19 53 -33 97 -31 97 3 0 -3 11 -12 25 -9 14 -14 25 -11 25 3 0 -8 37 -24
83 -17 45 -32 89 -34 97 -2 8 -47 141 -100 295 -53 154 -99 291 -102 305 -3
14 -10 30 -15 37 -5 7 -7 17 -3 23 3 5 1 10 -4 10 -6 0 -10 3 -10 8 1 4 0 10
-1 15 -1 4 -3 10 -5 15 -1 4 -4 14 -8 22 -3 8 -18 51 -32 95 -15 44 -29 87
-32 95 -4 8 -7 17 -8 20 -4 19 -48 149 -55 165 -5 11 -14 38 -21 60 -6 22 -18
57 -25 78 -8 21 -35 99 -60 175 -25 75 -49 146 -54 157 -5 11 -41 117 -80 235
-80 241 -141 412 -149 420 -7 6 -31 68 -36 95 -3 11 -9 29 -13 40 -5 11 -15
38 -21 60 -7 22 -16 49 -21 60 -5 11 -32 90 -60 175 -28 85 -56 163 -61 173
-5 10 -7 22 -4 27 3 4 -1 14 -8 22 -7 7 -14 18 -14 23 -2 16 -44 147 -59 180
-7 17 -15 42 -17 55 -3 14 -10 36 -15 50 -13 30 -24 61 -28 75 -3 13 -25 75
-35 100 -4 11 -31 90 -59 175 -28 85 -55 163 -61 172 -5 10 -9 23 -9 29 0 7
-18 63 -41 125 -22 63 -42 119 -43 126 -2 7 -6 20 -9 28 -3 8 -20 58 -37 110
-18 52 -36 104 -41 115 -6 12 -12 30 -14 40 -2 11 -4 22 -5 25 -1 3 -2 8 -1
13 0 4 -3 7 -7 7 -4 0 -9 8 -10 18 -2 22 -101 311 -102 296z"/>
<path d="M2759 7253 c5 -10 19 -40 31 -68 12 -27 30 -69 41 -93 10 -23 19 -49
19 -57 0 -8 5 -15 10 -15 6 0 10 -6 10 -14 0 -7 12 -40 26 -72 33 -73 46 -106
50 -119 5 -20 125 -291 140 -317 8 -16 12 -28 8 -28 -3 0 -1 -6 5 -13 6 -8 8
-17 4 -20 -3 -4 0 -7 7 -7 7 0 10 -3 7 -6 -4 -4 0 -19 8 -33 8 -14 20 -42 28
-61 8 -19 24 -55 35 -80 11 -25 50 -117 87 -205 37 -88 75 -178 85 -201 11
-22 28 -65 40 -94 12 -30 32 -77 44 -104 20 -44 34 -77 41 -96 1 -3 10 -23 19
-45 31 -69 48 -109 61 -140 7 -16 25 -59 40 -95 15 -36 33 -78 40 -95 7 -16
22 -50 32 -75 11 -25 33 -76 48 -115 16 -38 32 -74 37 -79 4 -6 8 -18 8 -28 0
-10 5 -18 10 -18 6 0 10 -6 10 -13 0 -12 53 -142 100 -244 11 -24 20 -46 20
-49 0 -4 9 -25 19 -48 11 -23 26 -57 34 -76 38 -91 71 -169 87 -205 15 -34 42
-98 83 -195 6 -14 11 -27 12 -30 1 -3 13 -31 28 -64 15 -32 27 -60 27 -63 0
-2 9 -25 21 -51 36 -80 68 -154 104 -242 14 -36 36 -85 47 -110 11 -25 24 -54
28 -65 5 -11 30 -69 55 -130 26 -60 53 -123 60 -140 47 -111 70 -165 85 -200
32 -72 82 -188 115 -270 18 -44 40 -96 48 -115 8 -19 14 -37 14 -40 -1 -3 5
-17 13 -30 9 -14 29 -56 45 -95 15 -38 36 -88 45 -110 10 -22 43 -101 75 -175
31 -74 65 -153 75 -175 10 -22 36 -85 59 -140 23 -55 53 -124 67 -153 13 -29
24 -55 24 -58 0 -3 9 -25 20 -50 32 -70 43 -98 42 -106 -1 -5 2 -8 6 -8 5 0 9
-6 9 -12 0 -7 14 -44 31 -81 18 -38 32 -70 32 -72 0 -3 12 -30 26 -62 14 -32
29 -67 34 -78 4 -11 15 -36 23 -55 8 -19 27 -64 42 -100 53 -125 60 -143 124
-289 23 -51 41 -100 41 -107 0 -8 5 -14 10 -14 6 0 10 -7 10 -15 0 -12 21 -63
92 -225 35 -78 45 -103 84 -198 21 -50 44 -92 50 -92 6 0 24 15 41 33 17 17
50 50 75 72 25 22 96 87 158 145 62 58 129 121 150 140 153 142 260 242 301
280 44 42 191 179 263 245 18 17 86 80 152 141 65 62 135 126 154 144 121 111
270 251 307 288 24 23 45 42 47 42 2 0 28 24 58 53 30 28 96 90 147 137 51 47
118 110 150 140 32 30 102 96 156 145 54 50 117 108 140 130 23 22 88 83 145
135 56 52 124 115 150 140 26 25 89 83 140 130 51 47 119 110 150 140 32 30
100 93 150 140 51 47 109 101 129 120 20 19 81 76 135 125 54 50 121 113 150
140 30 28 95 88 146 135 51 47 115 106 143 133 27 26 54 47 58 47 5 0 9 7 9
15 0 8 3 15 8 15 4 0 32 24 63 53 31 28 103 95 160 148 57 53 120 112 140 130
20 19 89 84 155 144 65 61 150 141 190 178 40 38 82 76 93 86 12 10 74 68 139
129 64 60 133 124 152 142 79 73 225 209 279 260 32 30 100 93 151 140 51 47
118 110 150 140 32 30 96 90 142 132 117 107 148 137 148 144 0 3 -5 2 -11 -1
-11 -7 -493 -174 -519 -180 -8 -2 -16 -4 -17 -5 -2 -2 -6 -3 -10 -5 -5 -1 -15
-5 -23 -8 -31 -13 -106 -38 -120 -41 -8 -1 -28 -8 -45 -15 -16 -7 -37 -14 -45
-16 -16 -4 -124 -41 -150 -52 -8 -3 -19 -5 -23 -4 -4 0 -18 -4 -30 -11 -12 -7
-26 -13 -32 -14 -5 -1 -91 -30 -190 -64 -99 -34 -184 -63 -190 -64 -5 -2 -17
-6 -25 -9 -36 -14 -166 -59 -180 -62 -13 -3 -363 -123 -410 -141 -8 -3 -15 -5
-15 -4 0 1 -47 -15 -105 -36 -58 -20 -112 -38 -120 -39 -8 -2 -16 -4 -17 -5
-2 -2 -6 -3 -10 -4 -5 -1 -14 -5 -20 -9 -7 -5 -21 -10 -30 -12 -10 -2 -144
-47 -298 -100 -154 -53 -288 -98 -297 -100 -9 -2 -26 -9 -37 -15 -12 -6 -21
-8 -21 -4 0 3 -6 2 -12 -3 -7 -5 -44 -20 -83 -32 -38 -12 -79 -26 -90 -31 -11
-5 -45 -16 -75 -26 -30 -9 -61 -21 -67 -27 -7 -5 -13 -7 -13 -4 0 4 -19 -1
-42 -9 -24 -9 -47 -17 -53 -18 -12 -4 -44 -15 -70 -26 -11 -5 -38 -14 -60 -20
-22 -6 -47 -14 -55 -17 -45 -17 -207 -74 -220 -77 -8 -3 -34 -11 -57 -20 -24
-8 -43 -13 -43 -9 0 3 -6 1 -12 -4 -7 -6 -96 -38 -198 -72 -102 -34 -194 -66
-205 -71 -38 -15 -150 -52 -162 -53 -7 0 -13 -5 -13 -10 0 -6 -3 -8 -6 -4 -4
3 -22 0 -40 -8 -19 -8 -34 -12 -34 -9 0 3 -12 -2 -27 -10 -22 -12 -120 -47
-143 -51 -11 -2 -56 -17 -75 -25 -42 -17 -114 -41 -137 -45 -24 -4 -23 -5
-255 215 -40 38 -73 67 -73 66 0 -2 -36 31 -79 73 -44 42 -95 90 -114 106 -19
17 -90 82 -157 145 -68 63 -138 129 -156 145 -140 130 -255 237 -293 273 -24
23 -45 42 -47 42 -2 0 -23 19 -47 43 -24 23 -90 85 -146 137 -57 52 -125 115
-151 140 -27 25 -92 86 -146 135 -53 50 -114 106 -134 125 -20 19 -79 73 -129
120 -113 104 -129 118 -267 247 -60 55 -123 114 -140 130 -58 53 -247 228
-278 258 -38 35 -141 131 -291 270 -60 55 -123 114 -140 130 -18 17 -78 73
-135 125 -130 120 -170 157 -246 228 -33 31 -104 98 -159 147 -92 84 -142 132
-257 240 -51 48 -64 55 -49 28z"/>
</g>
</svg>
