<svg width="148" height="46" viewBox="0 0 148 46" fill="none" xmlns="http://www.w3.org/2000/svg">
<path d="M60.4563 31.7588H63.9991V20.8061H66.4192V17.937H63.9991V17.3631C63.9991 15.8163 64.5729 15.2674 66.2695 15.3173V12.3733C62.3774 12.2735 60.4563 13.8453 60.4563 17.2384V17.937H58.8845V20.8061H60.4563V31.7588ZM74.6206 20.5816C76.4169 20.5816 77.864 21.7292 77.9139 23.5505H71.3523C71.6267 21.6544 72.949 20.5816 74.6206 20.5816ZM81.1822 27.4176H77.4149C76.9658 28.3408 76.1425 29.0892 74.6456 29.0892C72.8991 29.0892 71.502 27.9416 71.3273 25.8957H81.4317C81.5066 25.4467 81.5315 24.9976 81.5315 24.5485C81.5315 20.4319 78.7123 17.7124 74.7204 17.7124C70.6287 17.7124 67.7845 20.4818 67.7845 24.8479C67.7845 29.189 70.7036 31.9833 74.7204 31.9833C78.1384 31.9833 80.4338 29.9624 81.1822 27.4176ZM90.0189 20.5816C91.8152 20.5816 93.2623 21.7292 93.3122 23.5505H86.7506C87.025 21.6544 88.3473 20.5816 90.0189 20.5816ZM96.5805 27.4176H92.8132C92.3641 28.3408 91.5408 29.0892 90.0439 29.0892C88.2974 29.0892 86.9003 27.9416 86.7256 25.8957H96.83C96.9049 25.4467 96.9298 24.9976 96.9298 24.5485C96.9298 20.4319 94.1106 17.7124 90.1187 17.7124C86.027 17.7124 83.1828 20.4818 83.1828 24.8479C83.1828 29.189 86.1019 31.9833 90.1187 31.9833C93.5367 31.9833 95.8321 29.9624 96.5805 27.4176ZM98.5811 24.798C98.5811 29.1142 101.375 31.9833 104.893 31.9833C107.064 31.9833 108.611 30.9854 109.434 29.713V31.7588H112.977V13.2964H109.434V19.858C108.486 18.5607 106.74 17.7124 104.918 17.7124C101.375 17.7124 98.5811 20.4818 98.5811 24.798ZM109.459 24.8479C109.459 27.4675 107.713 28.9146 105.791 28.9146C103.92 28.9146 102.149 27.4176 102.149 24.798C102.149 22.1783 103.92 20.7812 105.791 20.7812C107.713 20.7812 109.459 22.2282 109.459 24.8479ZM122.326 20.5816C124.122 20.5816 125.57 21.7292 125.619 23.5505H119.058C119.332 21.6544 120.655 20.5816 122.326 20.5816ZM128.888 27.4176H125.12C124.671 28.3408 123.848 29.0892 122.351 29.0892C120.605 29.0892 119.207 27.9416 119.033 25.8957H129.137C129.212 25.4467 129.237 24.9976 129.237 24.5485C129.237 20.4319 126.418 17.7124 122.426 17.7124C118.334 17.7124 115.49 20.4818 115.49 24.8479C115.49 29.189 118.409 31.9833 122.426 31.9833C125.844 31.9833 128.139 29.9624 128.888 27.4176ZM135.279 24.8728C135.279 22.2033 136.527 21.4049 138.598 21.4049H139.521V17.7374C137.6 17.7374 136.153 18.6605 135.279 20.0826V17.937H131.787V31.7588H135.279V24.8728ZM145.541 29.8876C145.541 28.7399 144.643 27.8418 143.42 27.8418C142.148 27.8418 141.25 28.7399 141.25 29.8876C141.25 31.0353 142.148 31.9334 143.42 31.9334C144.643 31.9334 145.541 31.0353 145.541 29.8876Z" fill="white"/>
<path d="M22.998 45.9959C35.6994 45.9959 45.9959 35.6994 45.9959 22.998C45.9959 10.2965 35.6994 0 22.998 0C10.2965 0 0 10.2965 0 22.998C0 35.6994 10.2965 45.9959 22.998 45.9959Z" fill="#11182D"/>
<path d="M14.7402 17.1634C16.1962 17.1634 17.3766 15.983 17.3766 14.527C17.3766 13.0709 16.1962 11.8906 14.7402 11.8906C13.2841 11.8906 12.1038 13.0709 12.1038 14.527C12.1038 15.983 13.2841 17.1634 14.7402 17.1634Z" fill="white"/>
<path opacity="0.5" d="M23.2358 17.1634C24.6918 17.1634 25.8722 15.983 25.8722 14.527C25.8722 13.0709 24.6918 11.8906 23.2358 11.8906C21.7797 11.8906 20.5994 13.0709 20.5994 14.527C20.5994 15.983 21.7797 17.1634 23.2358 17.1634Z" fill="white"/>
<path opacity="0.9" d="M31.2598 17.1634C32.7159 17.1634 33.8963 15.983 33.8963 14.527C33.8963 13.0709 32.7159 11.8906 31.2598 11.8906C29.8038 11.8906 28.6234 13.0709 28.6234 14.527C28.6234 15.983 29.8038 17.1634 31.2598 17.1634Z" fill="white"/>
<path opacity="0.7" d="M15.2159 23.7155C16.6719 23.7155 17.8523 22.5351 17.8523 21.079C17.8523 19.623 16.6719 18.4426 15.2159 18.4426C13.7598 18.4426 12.5795 19.623 12.5795 21.079C12.5795 22.5351 13.7598 23.7155 15.2159 23.7155Z" fill="white"/>
<path d="M23.2358 23.7155C24.6918 23.7155 25.8722 22.5351 25.8722 21.079C25.8722 19.623 24.6918 18.4426 23.2358 18.4426C21.7797 18.4426 20.5994 19.623 20.5994 21.079C20.5994 22.5351 21.7797 23.7155 23.2358 23.7155Z" fill="white"/>
<path opacity="0.2" d="M31.2598 23.7155C32.7159 23.7155 33.8963 22.5351 33.8963 21.079C33.8963 19.623 32.7159 18.4426 31.2598 18.4426C29.8038 18.4426 28.6234 19.623 28.6234 21.079C28.6234 22.5351 29.8038 23.7155 31.2598 23.7155Z" fill="white"/>
<path d="M15.2159 30.2676C16.6719 30.2676 17.8523 29.0872 17.8523 27.6312C17.8523 26.1751 16.6719 24.9948 15.2159 24.9948C13.7598 24.9948 12.5795 26.1751 12.5795 27.6312C12.5795 29.0872 13.7598 30.2676 15.2159 30.2676Z" fill="white"/>
<path opacity="0.3" d="M23.2358 30.2676C24.6918 30.2676 25.8722 29.0872 25.8722 27.6312C25.8722 26.1751 24.6918 24.9948 23.2358 24.9948C21.7797 24.9948 20.5994 26.1751 20.5994 27.6312C20.5994 29.0872 21.7797 30.2676 23.2358 30.2676Z" fill="white"/>
<path opacity="0.85" d="M23.2769 36.8033C24.7329 36.8033 25.9133 35.6229 25.9133 34.1669C25.9133 32.7108 24.7329 31.5305 23.2769 31.5305C21.8208 31.5305 20.6404 32.7108 20.6404 34.1669C20.6404 35.6229 21.8208 36.8033 23.2769 36.8033Z" fill="white"/>
<path d="M31.2598 30.2676C32.7159 30.2676 33.8963 29.0872 33.8963 27.6312C33.8963 26.1751 32.7159 24.9948 31.2598 24.9948C29.8038 24.9948 28.6234 26.1751 28.6234 27.6312C28.6234 29.0872 29.8038 30.2676 31.2598 30.2676Z" fill="white"/>
</svg>
