<svg xmlns="http://www.w3.org/2000/svg" viewBox="0 0 56.44 90.53"><defs><style>.cls-1{fill:#dbe1e8;}.cls-2{fill:#eaf1f9;}.cls-3{fill:#a93127;}.cls-4{fill:#e94c3e;}.cls-5{fill:#d5dadf;}.cls-6{fill:#e8edf2;}.cls-7{fill:#42904f;}.cls-8{fill:#0f1b1e;}</style></defs><g id="Layer_2" data-name="Layer 2"><g id="Layer_1-2" data-name="Layer 1"><path class="cls-1" d="M1.09,40.48,25.25,62.87,38.61,0Z"/><path class="cls-2" d="M38.53,0,25.17,62.87,56.34,52.24Z"/><path class="cls-3" d="M0,45.25,19.29,90.53l4.86-22.88Z"/><path class="cls-4" d="M24.15,67.65,19.29,90.53,55.32,57Z"/><path class="cls-5" d="M31.47,33.52,1.09,40.4,25.24,62.86Z"/><path class="cls-6" d="M31.5,33.52,25.26,62.86l31.18-10.7Z"/><path class="cls-7" d="M1.09,40.48,17.55,55.75l-3.1-18.1,13.36-26Z"/><path class="cls-7" d="M56.37,52.27,35.12,59.5,44.94,44,43.73,15.06Z"/><path class="cls-8" d="M56.35,52.27,35.1,59.5,44.92,44,43.71,15.06Z"/></g></g></svg>